<svg xmlns="http://www.w3.org/2000/svg" width="90" height="24" viewBox="0 0 90 24" fill="none"><g clip-path="url(#clip0_22115_24553)"><path d="M83.3569 23.1808C80.9782 23.1514 79.0609 22.8569 77.3628 21.715C76.6408 21.2286 76.5568 20.6669 77.1108 20.03C77.5754 19.4967 78.0531 18.9699 78.5014 18.4235C78.6912 18.1912 78.8057 18.1846 79.0445 18.3809C80.5005 19.5686 82.1397 20.138 84.0342 19.7846C84.2436 19.7453 84.4497 19.6668 84.6427 19.5752C85.0321 19.3854 85.2611 19.0811 85.248 18.6231C85.2349 18.1715 85.0092 17.8673 84.6067 17.6939C83.8477 17.3667 83.0199 17.3176 82.2281 17.1115C81.5868 16.9446 80.9324 16.8235 80.2977 16.637C78.6355 16.1462 77.2679 15.3054 77.0356 13.4077C76.7967 11.4478 77.6016 9.92638 79.2376 8.84992C80.5071 8.01559 81.9434 7.77347 83.4354 7.78983C85.4378 7.80946 87.3322 8.17264 88.9518 9.45849C89.2136 9.6679 89.315 9.78568 89.0042 10.0638C88.2942 10.7018 87.6169 11.3758 86.9396 12.0498C86.7368 12.2527 86.6124 12.2592 86.3768 12.0793C85.199 11.1926 83.8771 10.8458 82.4113 11.0944C82.1954 11.1304 81.9925 11.2024 81.806 11.3169C81.4592 11.5296 81.2923 11.8404 81.3218 12.2461C81.3479 12.6224 81.613 12.8155 81.9238 12.9365C82.7058 13.2408 83.5434 13.3095 84.3548 13.4993C85.2251 13.7054 86.1184 13.8134 86.9625 14.1209C88.5265 14.6935 89.6978 15.6522 89.9465 17.383C90.2115 19.2415 89.5211 20.7367 87.9768 21.8099C86.475 22.8504 84.7671 23.1841 83.3602 23.1841L83.3569 23.1808Z" fill="white"></path><path d="M44.2007 14.4306C44.2007 11.8949 44.2007 9.35594 44.2007 6.82022C44.2007 5.88118 44.3642 4.98141 44.9074 4.18961C45.7188 3.01173 46.9261 2.56675 48.284 2.45551C49.1936 2.38353 50.1031 2.42606 51.0029 2.59293C51.2679 2.64201 51.3661 2.74344 51.3596 3.015C51.3465 3.84607 51.3399 4.67713 51.3596 5.50492C51.3661 5.8092 51.2581 5.8681 50.9833 5.83538C50.6332 5.79611 50.2733 5.76994 49.9199 5.77976C49.1707 5.79611 48.8238 6.1593 48.8108 6.89874C48.8042 7.22266 48.8304 7.54658 48.8042 7.86722C48.7813 8.18133 48.8762 8.30239 49.2099 8.2893C49.812 8.2664 50.414 8.29584 51.016 8.27621C51.3039 8.2664 51.4283 8.33183 51.4217 8.65575C51.4021 9.53262 51.4054 10.4095 51.4217 11.2864C51.425 11.5612 51.3563 11.6692 51.0618 11.6561C50.4598 11.6364 49.8578 11.6757 49.2557 11.6397C48.8696 11.6168 48.8009 11.7641 48.8042 12.1109C48.8173 15.5104 48.8042 18.9066 48.8206 22.3061C48.8206 22.7216 48.729 22.8525 48.2938 22.8427C47.0897 22.81 45.8857 22.8165 44.6816 22.8427C44.3054 22.8492 44.1843 22.7609 44.1876 22.365C44.2072 19.7213 44.1974 17.0743 44.1974 14.4306H44.2007Z" fill="white"></path><path d="M36.8937 10.3728C37.4597 9.69556 38.0716 9.12298 38.7979 8.67146C39.966 7.9451 41.2257 7.74224 42.5737 7.95491C42.8453 7.99745 42.8845 8.12832 42.8813 8.35735C42.8747 9.45017 42.8682 10.5397 42.8845 11.6325C42.8911 11.9466 42.77 11.9826 42.4984 11.9499C41.5954 11.8354 40.6891 11.7634 39.7795 11.9335C37.9505 12.2705 36.9788 13.4157 36.9755 15.2643C36.9722 17.6463 36.9689 20.0282 36.982 22.4134C36.982 22.7471 36.9133 22.8617 36.5534 22.8551C35.2872 22.8322 34.0242 22.8388 32.758 22.8551C32.4439 22.8584 32.3359 22.7831 32.3359 22.4494C32.3458 17.8066 32.3458 13.1638 32.3359 8.52422C32.3359 8.21339 32.4374 8.13814 32.7318 8.14141C33.9981 8.1545 35.261 8.1545 36.5272 8.14141C36.8086 8.14141 36.9035 8.21339 36.8937 8.50132C36.8741 9.12625 36.8871 9.75445 36.8871 10.3794L36.8937 10.3728Z" fill="white"></path><path d="M59.0977 8.15118C59.1076 8.30495 59.1305 8.45546 59.1305 8.60924C59.1305 13.1899 59.1305 17.7738 59.1403 22.3545C59.1403 22.7275 59.0618 22.8518 58.6659 22.8453C57.3996 22.8191 56.1367 22.8256 54.8705 22.8453C54.5596 22.8485 54.4844 22.7471 54.4844 22.4526C54.4942 18.6998 54.4942 14.9502 54.4844 11.1973C54.4844 10.9127 54.6087 10.7916 54.8214 10.664C56.225 9.83293 57.6254 8.99205 59.0258 8.15445C59.0519 8.11518 59.0781 8.11518 59.101 8.15445L59.0977 8.15118Z" fill="white"></path><path d="M59.092 8.15689L59.0527 8.16344L59.0135 8.15689C57.6229 7.3291 56.2356 6.49477 54.8385 5.6768C54.5833 5.52629 54.4655 5.36924 54.4688 5.06168C54.4852 3.49444 54.4852 1.92393 54.4688 0.356697C54.4655 -0.0719206 54.5866 -0.0686488 54.9073 0.127665C56.1735 0.893288 57.4462 1.64582 58.7288 2.38527C59.0168 2.55214 59.1313 2.74845 59.1247 3.08546C59.0985 4.77703 59.0985 6.46532 59.0887 8.15689H59.092Z" fill="#00BC82"></path><path d="M14.2491 4.76023C12.852 3.40239 11.1015 2.9247 9.20711 2.91161C6.3213 2.89198 3.43222 2.91161 0.546406 2.89852C0.134148 2.89525 0 2.98686 0 3.4253C0.0196314 6.5794 0.00981568 9.73024 0.00981568 12.8843C0.00981568 16.0384 0.0196314 19.1893 0 22.3434C0 22.7622 0.124332 22.8538 0.520231 22.844C1.86171 22.8178 3.20646 22.8211 4.54793 22.844C4.92747 22.8505 5.04199 22.7556 5.03872 22.363C5.01909 20.3639 5.03872 18.3648 5.02236 16.3656C5.02236 16.0254 5.10743 15.9141 5.46079 15.9207C6.72702 15.9403 7.99324 15.9403 9.25946 15.9272C13.0221 15.8847 15.5121 13.8234 15.9799 10.3192C16.258 8.22189 15.8262 6.29475 14.2524 4.76023H14.2491ZM11.1343 9.8513C10.9805 11.0292 10.1494 11.8668 8.89955 12.0304C7.70204 12.1874 6.49471 12.0631 5.29065 12.0991C4.99291 12.1089 5.0289 11.9126 5.0289 11.7261C5.0289 10.9572 5.0289 10.1883 5.0289 9.41941C5.0289 8.66687 5.03217 7.91106 5.0289 7.15853C5.0289 6.94258 5.06489 6.81171 5.32664 6.81825C6.45218 6.83461 7.58425 6.79207 8.70651 6.85751C10.3883 6.95894 11.3502 8.18263 11.1343 9.84802V9.8513Z" fill="white"></path><path d="M75.7986 15.5363C75.7986 14.9212 75.8215 14.3061 75.7953 13.691C75.7037 11.4988 74.7123 9.82362 72.7622 8.79952C70.4523 7.58891 68.0311 7.47767 65.6001 8.40362C63.084 9.36228 61.7032 11.4236 61.6967 14.1098C61.6967 15.2484 61.6705 16.387 61.7065 17.5224C61.7719 19.7767 62.8222 21.4421 64.8901 22.3648C67.3309 23.4543 69.8339 23.51 72.2976 22.44C74.228 21.6024 75.4223 20.1301 75.7429 18.023C75.8673 17.1985 75.7887 16.3641 75.7986 15.5363ZM71.1197 17.3948C71.1001 18.2946 70.786 19.07 69.8928 19.4463C68.9505 19.8422 68.0147 19.78 67.1738 19.1681C66.5914 18.7461 66.4017 18.1146 66.3919 17.4242C66.382 16.796 66.3919 16.1646 66.3919 15.5331C66.3919 14.9016 66.369 14.2734 66.3951 13.6452C66.4769 11.7933 68.2568 10.7757 69.919 11.6264C70.7467 12.0485 71.1034 12.7749 71.1197 13.6616C71.1459 14.9049 71.1459 16.1515 71.1197 17.3948Z" fill="white"></path><path d="M29.8019 13.3135C29.6677 11.2423 28.696 9.66529 26.8473 8.66409C25.3979 7.88211 23.8372 7.71524 22.2209 7.87556C18.5825 8.24202 16.2268 10.7287 16.1319 14.3343C16.1057 15.3944 16.0926 16.4577 16.1482 17.5178C16.2791 19.9783 17.5355 21.6699 19.8259 22.5762C21.5796 23.2698 23.3988 23.3549 25.2441 23.0375C26.7001 22.7856 28.0219 22.2326 29.1638 21.2772C29.455 21.0319 29.5565 20.8486 29.2849 20.4985C28.8432 19.9292 28.4473 19.3174 28.0645 18.7055C27.8747 18.4045 27.7635 18.3424 27.4068 18.5518C25.9966 19.3894 24.4916 19.9063 22.8196 19.4941C21.4749 19.1636 20.8238 18.3195 20.8205 17.0369C20.8205 16.7162 20.9056 16.6181 21.2328 16.6213C22.5906 16.6377 23.9484 16.6279 25.3063 16.6279C26.6805 16.6279 28.0547 16.6279 29.4289 16.6279C29.6612 16.6279 29.8444 16.6377 29.8346 16.304C29.8117 15.306 29.864 14.3016 29.7986 13.3069L29.8019 13.3135ZM25.1001 13.9515C24.4392 13.9384 23.775 13.9482 23.1108 13.9482C22.463 13.9482 21.8152 13.9384 21.1706 13.9515C20.9088 13.958 20.8303 13.8729 20.8238 13.6112C20.7845 12.2043 21.7334 11.2391 23.1861 11.2391C24.6159 11.2391 25.5091 12.1846 25.4601 13.621C25.4502 13.8926 25.3521 13.958 25.1034 13.9515H25.1001Z" fill="white"></path></g><defs><clipPath id="clip0_22115_24553"><rect width="90" height="23.2141" fill="white"></rect></clipPath></defs></svg>